<?xml version="1.0" encoding="UTF-8"?><svg id="Capa_1" xmlns="http://www.w3.org/2000/svg" width="632" height="632" viewBox="0 0 632 632"><defs><style>.cls-1{fill:#00bc7d;}.cls-2{fill:#fff;}</style></defs><path class="cls-1" d="M316,0C141.48,0,0,141.48,0,316s141.48,316,316,316,316-141.48,316-316S490.52,0,316,0ZM307.72,105.88l181.46,83.23v143.6h-30.41v-129.22l-151.05,69.28-181.92-83.44,181.92-83.44ZM307.72,411.56l-105.14-50.48v-103.08l105.14,48.23,105.15-48.23v103.08l-12.05,5.79-65.39-11.45,7.08,39.44-34.79,16.7ZM484.69,526.12l-53.24-53.24-35.08,49.87c-2.43-13.53-21.38-119.03-23.32-129.87,22.46,3.94,106.61,18.65,130.57,22.85l-50.65,35.65,53.24,53.24-21.51,21.51Z"/><polygon class="cls-2" points="410.51 259.41 410.51 359.98 398.75 365.63 334.95 354.46 341.86 392.94 307.92 409.23 205.34 359.98 205.34 259.41 307.92 306.46 410.51 259.41"/><path class="cls-2" d="M501.57,500.01l-20.99,20.99-51.94-51.94-34.23,48.65c-2.37-13.2-20.86-116.13-22.75-126.71,21.91,3.84,104.01,18.2,127.39,22.29l-49.42,34.78,51.94,51.94Z"/><polygon class="cls-2" points="484.96 192.2 484.96 332.3 455.29 332.3 455.29 206.23 307.92 273.82 130.43 192.41 307.92 111 484.96 192.2"/></svg>