<?xml version="1.0" encoding="UTF-8"?><svg id="Capa_1" xmlns="http://www.w3.org/2000/svg" width="628" height="628" viewBox="0 0 628 628"><defs><style>.cls-1{fill:#00bc7d;}.cls-2{fill:#fff;}</style></defs><path class="cls-1" d="M314,0C140.58,0,0,140.58,0,314s140.58,314,314,314,314-140.58,314-314S487.42,0,314,0ZM305.77,105.21l180.31,82.7v142.69h-30.22v-128.4l-150.09,68.84-180.77-82.92,180.77-82.92ZM305.77,408.95l-104.48-50.16v-102.43l104.48,47.92,104.49-47.92v102.43l-11.98,5.75-64.98-11.38,7.04,39.19-34.57,16.59ZM481.62,522.79l-52.9-52.9-34.86,49.55c-2.41-13.44-21.25-118.28-23.17-129.05,22.32,3.91,105.93,18.54,129.75,22.7l-50.33,35.42,52.9,52.9-21.38,21.38Z"/><polygon class="cls-2" points="410.26 256.36 410.26 358.79 398.28 364.55 333.3 353.17 340.34 392.36 305.77 408.95 201.29 358.79 201.29 256.36 305.77 304.28 410.26 256.36"/><path class="cls-2" d="M503,501.41l-21.38,21.38-52.9-52.9-34.86,49.55c-2.41-13.44-21.25-118.28-23.17-129.05,22.32,3.91,105.93,18.54,129.75,22.7l-50.33,35.42,52.9,52.9Z"/><polygon class="cls-2" points="486.08 187.91 486.08 330.6 455.87 330.6 455.87 202.2 305.77 271.04 125 188.12 305.77 105.21 486.08 187.91"/></svg>